<?xml version="1.0" encoding="iso-8859-1"?>
<!-- Generator: Adobe Illustrator 18.0.0, SVG Export Plug-In . SVG Version: 6.00 Build 0)  -->
<!DOCTYPE svg PUBLIC "-//W3C//DTD SVG 1.1//EN" "http://www.w3.org/Graphics/SVG/1.1/DTD/svg11.dtd">
<svg version="1.1" id="Capa_1" xmlns="http://www.w3.org/2000/svg" xmlns:xlink="http://www.w3.org/1999/xlink" x="0px" y="0px"
	 viewBox="0 0 201.313 201.313" style="enable-background:new 0 0 201.313 201.313;" xml:space="preserve">
<g>
	<path d="M182.967,4.848H18.332C8.224,4.848,0,13.072,0,23.182V146.48c0,10.115,8.224,18.344,18.332,18.344H71.08v16.641H48.396v15
		H78.58h44.131h30.191v-15h-22.691v-16.641h52.756c10.116,0,18.346-8.229,18.346-18.344V23.182
		C201.313,13.072,193.083,4.848,182.967,4.848z M15,49.254h171.313v71.156H15V49.254z M18.332,19.848h164.635
		c1.845,0,3.346,1.496,3.346,3.334v11.072H15V23.182C15,21.344,16.495,19.848,18.332,19.848z M115.211,181.465H86.08v-16.641h29.131
		V181.465z M182.967,149.824h-60.256H78.58H18.332c-1.837,0-3.332-1.5-3.332-3.344v-11.07h171.313v11.07
		C186.313,148.324,184.812,149.824,182.967,149.824z"/>
	<path d="M129.006,106.11l-11.357-11.356c2.718-4.06,4.307-8.936,4.307-14.178c0-14.093-11.465-25.559-25.557-25.559
		c-6.827,0-13.245,2.658-18.072,7.485c-4.828,4.828-7.485,11.246-7.484,18.072c-0.001,6.827,2.657,13.245,7.485,18.071
		c4.827,4.826,11.245,7.484,18.072,7.484c5.242,0,10.118-1.588,14.178-4.306l11.359,11.358L129.006,106.11z M96.398,96.131
		c-4.156,0-8.063-1.618-11.001-4.556c-2.938-2.938-4.556-6.844-4.555-11c0-4.155,1.617-8.063,4.556-11.001
		c2.938-2.938,6.845-4.557,11.001-4.557c8.578,0,15.557,6.979,15.557,15.559C111.955,89.153,104.977,96.131,96.398,96.131z"/>
</g>
<g>
</g>
<g>
</g>
<g>
</g>
<g>
</g>
<g>
</g>
<g>
</g>
<g>
</g>
<g>
</g>
<g>
</g>
<g>
</g>
<g>
</g>
<g>
</g>
<g>
</g>
<g>
</g>
<g>
</g>
</svg>
